<?xml version="1.0" encoding="utf-8"?>
<!-- Generator: Adobe Illustrator 16.0.4, SVG Export Plug-In . SVG Version: 6.00 Build 0)  -->
<!DOCTYPE svg PUBLIC "-//W3C//DTD SVG 1.0//EN" "http://www.w3.org/TR/2001/REC-SVG-20010904/DTD/svg10.dtd">
<svg version="1.0" id="Layer_1" xmlns="http://www.w3.org/2000/svg" xmlns:xlink="http://www.w3.org/1999/xlink" x="0px" y="0px"
	 width="120px" height="31.286px" viewBox="0 0 120 31.286" enable-background="new 0 0 120 31.286" xml:space="preserve">
<g>
	<path fill="#FFF9ED" d="M24.368,4.919h8.499V0.021h-8.499V4.919z M35.15,28.454h4.891V4.919h9.701V0.021H35.15V28.454z
		 M24.407,16.72h6.635v-4.968h-6.635V16.72z M41.282,16.72h6.635v-4.968h-6.635V16.72z M24.368,28.454h8.499v-4.946h-8.499V28.454z
		 M114.819,0l-4.489,1.954V7.51l4.768-2.106v23.04H120V0H114.819z M0,28.439h4.924V0.012H0V28.439z M9.641,0H6.125v4.938h2.243
		c0.394,0.003,2.671,0.129,2.671,2.372v13.819c0,2.246-2.277,2.37-2.671,2.375H6.125v4.935h3.516c0,0,6.352,0.005,6.352-7.278V7.281
		C15.993,0,9.641,0,9.641,0 M18.278,28.454h4.89V0.021h-4.89V28.454z M94.484,0.457L94.266,0h-4.469v2.675l12.772,25.763h4.299
		v-2.52L94.465,0.457H94.484z M89.797,28.438h5.122V15.226L89.797,5.006V28.438z M101.748,13.098l5.12,10.033V0h-5.12V13.098z
		 M108.393,28.438h4.932v-4.934h-4.932V28.438z M70.055,7.281v13.88c0,7.283,6.346,7.278,6.346,7.278h1.7v-4.935h-0.427
		c-0.391-0.005-2.668-0.129-2.668-2.375V7.31c0-2.243,2.277-2.369,2.668-2.372h0.427V0h-1.7C76.4,0,70.055,0,70.055,7.281
		 M68.276,21.161V7.281C68.276,0,61.922,0,61.922,0h-1.694v4.938h0.421c0.394,0.003,2.669,0.129,2.669,2.372v13.819
		c0,2.246-2.275,2.37-2.669,2.375h-0.421v4.935h1.694c0,0,0.076,0,0.209-0.007l1.706,2.854l4.253-2.234l-1.472-2.764
		C67.562,25.211,68.276,23.594,68.276,21.161 M80.926,0h-1.694v4.938h0.423c0.391,0.003,2.667,0.129,2.667,2.372v13.819
		c0,2.246-2.276,2.37-2.667,2.375h-0.423v4.935h1.694c0,0,6.352,0.005,6.352-7.278V7.281C87.277,0,80.926,0,80.926,0 M51.049,7.281
		v13.88c0,7.283,6.347,7.278,6.347,7.278h1.696v-4.935h-0.419c-0.393-0.005-2.672-0.129-2.672-2.375V7.31
		c0-2.243,2.279-2.369,2.672-2.372h0.419V0h-1.696C57.396,0,51.049,0,51.049,7.281"/>
</g>
</svg>
